PathFileType	4	(X/Y/Z)	s08c0201.trc
DataRate	CameraRate	NumFrames	NumMarkers	Units	OrigDataRate	OrigDataStartFrame	OrigNumFrames
200	200	5	50	mm	200	0	2000
Frame#	Time	racr			lacr			c7			jug			rlel			rdr			llel			ldr			s2			lic			ric			lasi			rasi			rpsi			lpsi			rgt			lgt			rth1			rth2			rth3			rth4			rlfc			rmfc			rsh1			rsh2			rsh3			rsh4			rlmal			rmmal			rcal			rtoe			rmt5			lth1			lth2			lth4			lth3			llfc			lmfc			llmal			lmmal			lcal			lmt5			lsh1			lsh2			lsh3			lsh4			ltoe			SBIKE			LBIKE			RBIKE			
		X1	Y1	Z1	X2	Y2	Z2	X3	Y3	Z3	X4	Y4	Z4	X5	Y5	Z5	X6	Y6	Z6	X7	Y7	Z7	X8	Y8	Z8	X9	Y9	Z9	X10	Y10	Z10	X11	Y11	Z11	X12	Y12	Z12	X13	Y13	Z13	X14	Y14	Z14	X15	Y15	Z15	X16	Y16	Z16	X17	Y17	Z17	X18	Y18	Z18	X19	Y19	Z19	X20	Y20	Z20	X21	Y21	Z21	X22	Y22	Z22	X23	Y23	Z23	X24	Y24	Z24	X25	Y25	Z25	X26	Y26	Z26	X27	Y27	Z27	X28	Y28	Z28	X29	Y29	Z29	X30	Y30	Z30	X31	Y31	Z31	X32	Y32	Z32	X33	Y33	Z33	X34	Y34	Z34	X35	Y35	Z35	X36	Y36	Z36	X37	Y37	Z37	X38	Y38	Z38	X39	Y39	Z39	X40	Y40	Z40	X41	Y41	Z41	X42	Y42	Z42	X43	Y43	Z43	X44	Y44	Z44	X45	Y45	Z45	X46	Y46	Z46	X47	Y47	Z47	X48	Y48	Z48	X49	Y49	Z49	X50	Y50	Z50	
0	0.0000	538.176988	1396.766971	-73.667840	563.105780	1408.674818	-435.874208	531.130186	1450.339390	-248.536409	510.653734	1295.354946	-242.456304	563.257519	1134.869295	11.059157	783.838082	936.884235	-65.362665	591.984997	1144.744389	-512.301408	774.140365	928.612176	-436.894419	-14.448764	1209.750208	-258.004794	161.643117	1170.800178	-396.596765	144.150964	1219.581825	-96.009370	176.487084	1116.736020	-360.211721	161.039054	1158.543521	-124.508145	15.290917	1254.341072	-209.063085	25.742977	1244.037413	-304.396077	57.259026	1128.743434	-44.489380	76.015485	1063.513279	-422.436191	192.868643	1032.775664	-31.768794	279.460164	1012.576221	-29.375326	342.359120	952.038215	-28.814855	296.734431	1042.441411	-44.758998	436.060141	874.116616	-47.426675	423.530647	870.399625	-162.893511	341.488322	786.398817	-22.727655	301.631494	708.048948	-47.389864	230.866779	661.088726	-55.392559	325.595658	696.490821	-79.547575	148.028476	577.577493	-71.732447	169.811053	598.146546	-156.937503	62.365035	563.934803	-116.351280	353.342560	506.145388	-109.242173	262.682484	490.531001	-44.157658	116.567633	933.584906	-440.192556	160.441089	857.781296	-435.324174	194.163113	866.798549	-421.907524	158.233830	768.838151	-430.398276	184.272774	646.747609	-406.327780	178.921217	624.985562	-309.653685	190.813945	232.545031	-402.256230	229.509669	265.198179	-333.156448	131.166957	209.020983	-362.901070	336.332079	145.454405	-422.409116	178.277050	519.892218	-434.361954	203.592364	438.571319	-415.852496	188.413669	352.374525	-418.824692	223.181161	444.287702	-382.930422	418.600647	174.373849	-354.019239	-139.480602	941.902473	-228.818572	17.519146	79.690174	-427.953371	17.797222	80.079347	-29.230044	
1	0.0050	538.255596	1396.748633	-73.740225	563.073639	1408.593824	-435.915014	531.116052	1450.254769	-248.608758	510.620544	1295.292951	-242.454795	563.272526	1134.871208	11.090232	783.833959	936.904138	-65.315627	591.925763	1144.661806	-512.295771	774.122627	928.598056	-436.855736	-14.069355	1209.717536	-258.082124	161.518954	1170.756881	-396.546597	144.107603	1219.589132	-95.964407	176.315976	1116.646133	-360.250820	161.005349	1158.627123	-124.486441	15.182388	1254.326296	-209.005445	25.626391	1244.097976	-304.359615	57.241877	1128.908300	-44.435999	75.780378	1063.520074	-422.463404	192.955947	1033.117778	-31.773411	279.542069	1013.034877	-29.424011	342.575044	952.571019	-28.870393	296.791979	1042.890582	-44.833429	436.290010	874.734416	-47.484724	423.746047	870.971645	-162.899501	341.899854	786.797320	-22.779525	302.305295	708.371608	-49.045590	231.499709	661.374825	-55.401587	326.113398	696.840286	-79.619517	148.800474	577.685178	-71.736443	170.483830	598.220141	-156.927101	63.148645	563.932067	-116.321251	354.154992	506.497825	-109.211118	263.162684	490.752905	-44.139185	116.192815	933.556438	-440.171735	159.972915	857.679925	-435.358236	193.686782	866.688807	-421.954084	157.647952	768.780803	-430.448275	183.673051	646.671052	-406.329631	178.414579	624.924046	-309.618113	189.981409	232.541109	-402.240214	228.724909	265.120448	-333.092656	130.379036	209.049572	-362.847820	335.399127	145.239568	-422.472484	177.404414	519.736628	-434.072146	202.868794	438.463095	-415.803851	187.628650	352.323682	-418.792772	222.464535	444.196675	-383.002470	417.791236	174.078420	-353.994918	-139.472248	941.904895	-228.826223	17.493447	79.845725	-428.024361	17.797565	80.009814	-29.258211	
2	0.0100	538.311942	1396.715423	-73.868969	562.999613	1408.531743	-435.944871	531.089908	1450.160208	-248.686043	510.609813	1295.219643	-242.530891	563.263411	1134.850113	11.092395	783.837100	936.908086	-65.305753	591.877379	1144.605859	-512.311188	774.121238	928.601969	-436.855045	-14.151249	1209.764963	-258.041134	161.424232	1170.734225	-396.530333	144.074485	1219.565947	-95.952004	176.158180	1116.583448	-360.326600	160.931340	1158.672577	-124.482221	15.122580	1254.345550	-208.985310	25.492309	1244.177360	-304.344346	57.210638	1129.051744	-44.365160	75.567506	1063.514425	-422.431677	193.016041	1033.438990	-31.769145	279.625308	1013.475742	-29.487318	342.652976	953.148528	-28.934935	296.801250	1043.300869	-44.925657	436.547237	875.268521	-47.555803	423.972464	871.520361	-162.974164	342.278714	787.272427	-22.854292	302.865248	708.709012	-49.062914	232.175729	661.619172	-55.428498	326.731235	697.272535	-79.642944	149.537747	577.796311	-71.755094	171.242160	598.361645	-156.866621	64.582743	562.784922	-116.459860	355.026235	506.891491	-109.226712	263.558093	490.942370	-44.100221	115.810839	933.547902	-440.141783	159.520222	857.611940	-435.392397	193.257182	866.607333	-422.017351	157.093138	768.707796	-430.489887	183.049836	646.600255	-406.358333	177.859123	624.905080	-309.668948	189.194789	232.494900	-402.223266	227.811357	264.911995	-332.980917	129.578809	209.137697	-362.828420	334.552539	144.987586	-422.417088	176.897957	519.788410	-434.302581	202.150718	438.381964	-415.779143	186.895598	352.250019	-418.736808	221.784484	444.058561	-382.812521	416.927004	173.743969	-354.029158	-139.473068	941.893828	-228.828059	17.531155	79.710367	-427.925174	17.816050	80.026295	-29.258085	
3	0.0150	537.749072	1395.783111	-75.562206	562.936491	1408.525765	-435.967795	531.218388	1450.152715	-248.853402	510.562714	1295.155434	-242.600647	563.280142	1134.840438	11.124285	783.916200	936.847616	-65.211152	591.269749	1145.809985	-516.265707	774.428681	928.149327	-434.743268	-14.259155	1209.816130	-258.016038	161.838762	1172.487491	-402.002986	143.931187	1219.450305	-95.921054	175.990272	1116.521554	-360.361940	160.889483	1158.723302	-124.487548	15.577505	1253.841572	-208.933948	25.830158	1243.915249	-304.300341	57.015999	1129.120169	-44.393798	75.334157	1063.532031	-422.429094	193.060006	1033.750350	-31.784777	279.510269	1014.287973	-28.995060	342.931678	953.569002	-29.801693	295.839185	1043.976900	-46.368263	436.763270	875.787095	-48.217291	426.128075	872.979516	-168.503323	342.643297	787.710215	-22.902492	302.920772	709.080620	-47.844284	232.755983	661.779467	-55.456007	326.590375	698.380316	-78.968652	150.306362	577.830333	-71.677014	172.001949	598.499147	-156.850102	64.707353	563.867073	-116.332009	356.156043	507.350484	-109.511025	263.093007	491.997080	-44.566574	115.662838	933.493855	-439.795594	159.159331	857.516369	-435.245981	193.412025	867.355140	-423.657947	156.901545	768.437399	-429.536602	186.160308	651.145404	-414.727633	177.479950	625.446931	-311.113871	189.108511	231.368322	-400.600456	227.101505	264.923842	-333.026867	128.848643	209.142991	-362.771789	333.639038	144.800997	-422.397158	176.427803	519.546887	-434.053069	201.542301	442.052242	-421.823115	185.427968	353.328686	-420.506491	221.336660	446.627003	-387.715892	415.048096	175.335737	-356.772645	-139.472470	941.897531	-228.835849	17.518623	79.712248	-427.944464	17.807558	80.012322	-29.273734	
4	0.0200	537.455980	1395.254984	-76.521413	562.885814	1408.537664	-435.985584	531.224420	1449.973162	-249.050052	510.689749	1294.721865	-242.644912	561.364984	1134.993453	9.838371	783.889059	936.809960	-64.908318	590.143107	1147.345827	-519.156335	774.367516	928.250839	-434.672455	-14.429327	1209.948284	-257.950751	161.357340	1173.494095	-404.166446	143.983134	1219.585883	-96.064658	175.980208	1116.030661	-360.773899	160.798570	1158.547355	-124.677976	15.649613	1254.103460	-209.092371	25.760063	1243.999487	-304.299397	57.029116	1129.412687	-44.215580	74.939650	1063.346809	-422.060593	193.117717	1034.129330	-31.824227	279.510321	1014.905802	-28.770957	343.007833	954.126352	-29.239389	296.762631	1044.039235	-45.464595	436.534783	877.199783	-51.036735	428.911082	874.770077	-175.849512	343.012173	788.277543	-22.931049	301.887998	709.531611	-50.834957	233.321446	662.134641	-55.443346	327.118538	698.860552	-78.903530	151.083935	577.908686	-71.765851	172.693677	598.733077	-156.892520	65.502051	563.708951	-116.376710	356.550516	512.551794	-117.260393	262.979513	493.537804	-48.586178	114.627069	933.405610	-440.335623	158.663537	857.474798	-435.322178	192.351594	866.408568	-422.276746	156.390745	768.282298	-429.496968	184.567775	651.505903	-415.929717	176.720775	625.784598	-312.752877	188.331456	231.288569	-400.697436	226.612023	264.656820	-333.192076	127.940583	209.156609	-362.650287	332.719127	144.335202	-422.476181	174.969472	522.953805	-441.228098	200.512148	443.020909	-423.858868	183.106599	354.093489	-421.425716	218.999096	446.130568	-387.477818	412.440087	175.643617	-357.720814	-139.448549	941.851915	-228.942690	16.294646	81.489109	-429.888170	17.741944	79.925954	-29.440602	
